<svg width="42" height="42" viewBox="0 0 42 42" fill="none" xmlns="http://www.w3.org/2000/svg">
<circle cx="21" cy="21" r="20.5" stroke="#CFCFCF"/>
<path d="M19.3333 13.5833C20.4983 13.5833 21.6401 13.9089 22.6299 14.5233C23.6197 15.1377 24.418 16.0165 24.9349 17.0606C25.4517 18.1047 25.6664 19.2724 25.5548 20.432C25.4433 21.5916 25.0098 22.697 24.3033 23.6233L28.2558 27.5775C28.4053 27.7275 28.4921 27.9287 28.4985 28.1403C28.505 28.352 28.4307 28.5581 28.2906 28.7169C28.1506 28.8757 27.9554 28.9753 27.7446 28.9953C27.5338 29.0154 27.3233 28.9545 27.1558 28.825L27.0775 28.7558L23.1233 24.8033C22.3342 25.4051 21.4131 25.8103 20.4362 25.9853C19.4594 26.1604 18.4549 26.1003 17.5058 25.8101C16.5568 25.5199 15.6905 25.0078 14.9787 24.3163C14.2669 23.6248 13.73 22.7737 13.4124 21.8335C13.0948 20.8933 13.0056 19.8909 13.1523 18.9094C13.299 17.9279 13.6774 16.9955 14.256 16.1892C14.8346 15.3829 15.597 14.7261 16.4799 14.2729C17.3628 13.8198 18.3409 13.5834 19.3333 13.5833ZM19.3333 15.25C18.1178 15.25 16.952 15.7329 16.0924 16.5924C15.2329 17.452 14.75 18.6178 14.75 19.8333C14.75 21.0489 15.2329 22.2147 16.0924 23.0742C16.952 23.9338 18.1178 24.4167 19.3333 24.4167C20.5489 24.4167 21.7147 23.9338 22.5742 23.0742C23.4338 22.2147 23.9167 21.0489 23.9167 19.8333C23.9167 18.6178 23.4338 17.452 22.5742 16.5924C21.7147 15.7329 20.5489 15.25 19.3333 15.25Z" fill="black"/>
</svg>
